# xmcd
#
# Track frame offsets: 
#        150
#        23480
#        39605
#
# Disc length: 978 seconds
#
# Revision: 0
# Processed by: cddbd v1.5.2PL0 Copyright (c) Steve Scherf et al.
# Submitted via: ExactAudioCopy v0.99pb4
#
DISCID=1803d003
DTITLE=Slaskie Ministerstwo Blues'a - Maxi Singiel
DYEAR=2008
DGENRE=Blues
TTITLE0=Znajdz sie robota
TTITLE1=Potrzebuja twojej milosci
TTITLE2=Blues dla Emmy
EXTD=
EXTT0=
EXTT1=
EXTT2=
PLAYORDER=
